<svg height="512pt" viewBox="0 0 512 512" width="512pt" xmlns="http://www.w3.org/2000/svg"><path d="m280 512c-83.90625-.097656-151.902344-68.09375-152-152v-40h32v40c0 66.273438 53.726562 120 120 120s120-53.726562 120-120v-24h32v24c-.097656 83.90625-68.09375 151.902344-152 152zm0 0" fill="#ef5350"/><path d="m400 272h32v32h-32zm0 0" fill="#e53935"/><path d="m96 256h96v80h-96zm0 0" fill="#b0bec5"/><path d="m48 0h192c26.507812 0 48 21.492188 48 48v192c0 26.507812-21.492188 48-48 48h-192c-26.507812 0-48-21.492188-48-48v-192c0-26.507812 21.492188-48 48-48zm0 0" fill="#e5e5e5"/><path d="m416 248.910156-77.585938-77.597656c-22.5625-22.578125-24.628906-58.480469-4.800781-83.492188 19.828125-25.015624 55.257813-31.199218 82.386719-14.378906 27.128906-16.820312 62.558594-10.636718 82.386719 14.378906 19.828125 25.011719 17.761719 60.914063-4.800781 83.492188zm0 0" fill="#ef5350"/><path d="m64 64h160v160h-160zm0 0" fill="#ccc"/><path d="m448 96h32v32h-32zm0 0" fill="#fff"/></svg>