<svg height="508pt" viewBox="-78 0 508 508.8005" width="508pt" xmlns="http://www.w3.org/2000/svg"><path d="m176.40625 508.800781c-64.601562-.304687-123.59375-36.757812-152.765625-94.402343-34.105469-63.367188-30.449219-140.386719 9.503906-200.238282l143.261719-214.160156 143.265625 214.207031c39.933594 59.84375 43.589844 136.835938 9.503906 200.191407-29.171875 57.644531-88.167969 94.097656-152.769531 94.402343zm0 0" fill="#ef5350"/><path d="m329.175781 347.199219c-28.945312 57.871093-88.097656 94.421875-152.800781 94.421875s-123.855469-36.550782-152.800781-94.421875c-9.847657-18.761719-16.589844-39-19.96875-59.917969-7.847657 43.417969-.789063 88.214844 20.035156 127.117188 28.953125 57.859374 88.101563 94.402343 152.796875 94.402343 64.699219 0 123.847656-36.542969 152.800781-94.402343 20.800781-38.910157 27.835938-83.707032 19.96875-127.117188-3.398437 20.921875-10.164062 41.160156-20.03125 59.917969zm0 0" fill="#e53935"/><g fill="#fff"><path d="m208.40625 396.800781h-64v-64h-64v-64h64v-64h64v64h64v64h-64zm0 0"/><path d="m160.40625 92.800781h32v32h-32zm0 0"/></g></svg>